<?xml version="1.0" encoding="iso-8859-1"?>
<!-- Uploaded to: SVG Repo, www.svgrepo.com, Generator: SVG Repo Mixer Tools -->
<svg height="800px" width="800px" version="1.1" id="Layer_1" xmlns="http://www.w3.org/2000/svg" xmlns:xlink="http://www.w3.org/1999/xlink" 
	 viewBox="0 0 503.754 503.754" xml:space="preserve">
<g transform="translate(0 1)">
	<path style="fill:#FFA800;" d="M411.4,7.396H260.274c-9.235,0-16.792,7.556-16.792,16.792v453.378
		c0,9.235,7.556,16.792,16.792,16.792h151.126c9.235,0,16.792-7.556,16.792-16.792V24.188C428.193,14.952,420.635,7.396,411.4,7.396
		"/>
	<path style="fill:#FFFFFF;" d="M243.482,7.396H92.356c-9.235,0-16.792,7.556-16.792,16.792v453.378
		c0,9.235,7.556,16.792,16.792,16.792h151.126c9.235,0,16.792-7.556,16.792-16.792V24.188
		C260.274,14.952,252.717,7.396,243.482,7.396"/>
	<path style="fill:#FFE100;" d="M386.212,7.396H117.544c-9.235,0-16.792,7.556-16.792,16.792v453.378
		c0,9.235,7.556,16.792,16.792,16.792h268.669c9.235,0,16.792-7.556,16.792-16.792V24.188
		C403.004,14.952,395.448,7.396,386.212,7.396"/>
	<polygon style="fill:#FF8800;" points="109.148,460.774 394.608,460.774 394.608,40.979 109.148,40.979 	"/>
	<polygon style="fill:#FFA800;" points="109.148,460.774 369.42,460.774 369.42,40.979 109.148,40.979 	"/>
	<g>
		<path d="M403.004,40.979c0-3.358-2.519-6.717-5.038-7.556l0,0c-1.679-0.84-2.519-0.84-3.358-0.84h-285.46
			c-5.038,0-8.396,3.358-8.396,8.396v419.795c0,5.038,3.358,8.396,8.396,8.396h285.46c5.038,0,8.396-3.358,8.396-8.396v-63.809l0,0
			V40.979z M386.212,393.607l-58.771,58.771h-47.857L386.212,345.75V393.607z M386.212,322.242L256.076,452.378h-47.857
			l177.993-177.153V322.242z M137.694,452.378L386.212,203.86v47.017L184.711,452.378H137.694z M117.544,115.703l66.328-66.328
			h47.857L117.544,163.56V115.703z M117.544,187.068L255.236,49.375h47.857l-185.549,185.55V187.068z M117.544,258.433
			L326.602,49.375h47.857L117.544,306.29V258.433z M117.544,329.798L386.212,61.13v47.857L117.544,377.655V329.798z
			 M386.212,132.495v47.857L117.544,449.02l0,0v-47.857L386.212,132.495z M160.363,49.375l-42.819,42.819V49.375H160.363z
			 M350.949,452.378l35.263-35.263v35.263H350.949z"/>
		<path d="M411.4-1H92.356C78.083-1,67.168,9.915,67.168,24.188v50.375c0,5.038,3.358,8.396,8.396,8.396s8.396-3.358,8.396-8.396
			V24.188c0-5.038,3.358-8.396,8.396-8.396H411.4c5.038,0,8.396,3.358,8.396,8.396v327.44c0,5.038,3.358,8.396,8.396,8.396
			c5.038,0,8.396-3.358,8.396-8.396V24.188C436.589,9.915,425.673-1,411.4-1z"/>
		<path d="M428.193,410.399c-5.038,0-8.396,3.358-8.396,8.396v58.771c0,5.038-3.358,8.396-8.396,8.396H92.356
			c-5.038,0-8.396-3.358-8.396-8.396V141.73c0-5.038-3.358-8.396-8.396-8.396c-5.038,0-8.396,3.358-8.396,8.396v335.836
			c0,14.273,10.915,25.188,25.188,25.188h319.044c14.273,0,25.188-10.915,25.188-25.188v-58.771
			C436.589,413.757,433.229,410.399,428.193,410.399z"/>
		<circle cx="75.561" cy="108.15" r="8.396"/>
		<circle cx="428.191" cy="385.21" r="8.396"/>
	</g>
</g>
</svg>