<?xml version="1.0" encoding="iso-8859-1"?>
<!-- Uploaded to: SVG Repo, www.svgrepo.com, Generator: SVG Repo Mixer Tools -->
<svg height="800px" width="800px" version="1.1" id="Layer_1" xmlns="http://www.w3.org/2000/svg" xmlns:xlink="http://www.w3.org/1999/xlink" 
	 viewBox="0 0 495.35 495.35" xml:space="preserve">
<g transform="translate(1 1)">
	<path style="fill:#FFA800;" d="M399.388,193.607c-24.911-11.57-48.176-11.847-69.333-6.717
		c17.237-20.402,27.161-47.177,25.607-76.31C352.706,55.057,306.512,9.594,250.956,7.47
		c-62.23-2.376-113.429,47.361-113.429,109.063c0,26.825,9.714,51.349,25.767,70.358c-21.158-5.13-44.423-4.853-69.333,6.717
		c-38.344,17.816-65.026,55.522-65.572,97.795c-0.781,60.946,48.377,110.591,109.138,110.591c29.36,0,55.95-11.645,75.563-30.502
		v32.156c0,15.423-4.022,30.578-11.679,43.969l-14.726,25.775c-3.199,5.6,0.848,12.56,7.288,12.56h105.402
		c6.448,0,10.486-6.96,7.288-12.56l-14.726-25.775c-7.649-13.391-11.679-28.546-11.679-43.969V371.49
		c19.621,18.857,46.211,30.502,75.563,30.502c60.761,0,109.927-49.645,109.138-110.591
		C464.414,249.129,437.732,211.423,399.388,193.607"/>
	<path style="fill:#FFE100;" d="M370.848,193.607c-22.996-11.57-44.465-11.847-63.994-6.717
		c15.902-20.402,25.07-47.177,23.634-76.31c-2.736-55.523-45.37-100.986-96.652-103.11c-57.445-2.376-87.913,47.361-87.913,109.063
		c0,26.825-7.825,51.349,6.994,70.358c-19.529-5.13-41.006-4.853-63.994,6.717c-35.397,17.816-60.031,55.522-60.534,97.795
		c-0.722,60.946,44.658,110.591,100.742,110.591c27.102,0,75.101-11.645,93.211-30.502v32.156c0,15.423-3.711,30.578-10.78,43.969
		l-23.66,25.775c-2.947,5.6,10.848,12.56,16.792,12.56h97.292c5.953,0,9.68-6.96,6.733-12.56l-13.601-25.775
		c-7.061-13.391-10.772-28.546-10.772-43.969V371.49c18.102,18.857,19.193,30.502,46.287,30.502
		c56.093,0,101.473-49.645,100.742-110.591C430.87,249.129,406.245,211.423,370.848,193.607"/>
	<path d="M299.378,494.35H193.974c-6.051,0-11.479-3.124-14.521-8.363c-3.038-5.231-3.062-11.503-0.057-16.759l14.726-25.778
		c6.916-12.094,10.573-25.86,10.573-39.807v-14.398c-19.612,13.734-42.902,21.146-67.167,21.146
		c-31.681,0-61.387-12.413-83.643-34.961c-22.261-22.548-34.297-52.425-33.891-84.131c0.574-44.357,28.217-85.693,70.43-105.305
		c17.87-8.298,35.9-11.762,54.643-10.45c-10.364-17.837-15.935-38.208-15.935-59.013c0-32.247,12.799-62.321,36.035-84.689
		c23.232-22.363,53.9-33.912,86.111-32.764c60.038,2.296,109.577,51.076,112.775,111.053c1.23,23.138-4.296,45.755-15.751,65.413
		c18.735-1.308,36.765,2.156,54.623,10.446l0.008,0.004c42.209,19.616,69.856,60.952,70.422,105.305
		c0.41,31.706-11.626,61.575-33.879,84.123c-22.261,22.548-51.966,34.969-83.656,34.969c-24.261,0-47.547-7.412-67.167-21.154
		v14.406c0,13.93,3.657,27.688,10.569,39.807l14.734,25.778c3.001,5.264,2.984,11.528-0.057,16.759
		C310.856,491.226,305.429,494.35,299.378,494.35z M221.486,351.784v51.859c0,16.866-4.423,33.51-12.787,48.137l-14.726,25.778
		h105.404l-14.734-25.778c-8.363-14.652-12.782-31.296-12.782-48.137v-51.859l14.209,13.66
		c18.907,18.153,43.677,28.156,69.75,28.156c27.155,0,52.622-10.642,71.701-29.976c19.079-19.325,29.394-44.931,29.041-72.111
		c-0.484-37.937-24.319-73.378-60.714-90.293c-20.604-9.568-41.488-11.581-63.822-6.17l-24.983,6.063l16.595-19.641
		c16.62-19.661,25.016-44.681,23.638-70.447c-2.738-51.396-45.185-93.199-96.639-95.167c-27.725-1.066-53.913,8.912-73.825,28.082
		c-19.92,19.174-30.89,44.952-30.89,72.591c0,23.716,8.449,46.78,23.79,64.945l16.583,19.633l-24.979-6.059
		c-22.338-5.42-43.213-3.399-63.818,6.17c-36.392,16.911-60.227,52.355-60.714,90.293c-0.348,27.18,9.97,52.794,29.049,72.119
		s44.538,29.968,71.693,29.968c26.081,0,50.851-10.003,69.746-28.156L221.486,351.784z"/>
	<path d="M355.82,376.807c-4.641,0-8.396-3.755-8.396-8.396s3.755-8.396,8.396-8.396c18.104,0,35.084-7.1,47.801-19.981
		c12.717-12.881,19.596-29.951,19.358-48.088c-0.057-4.633,3.649-8.445,8.289-8.503c4.526-0.402,8.445,3.657,8.502,8.289
		c0.287,22.654-8.306,43.996-24.196,60.1C399.677,367.936,378.45,376.807,355.82,376.807z"/>
</g>
</svg>