<?xml version="1.0" encoding="iso-8859-1"?>
<!-- Uploaded to: SVG Repo, www.svgrepo.com, Generator: SVG Repo Mixer Tools -->
<svg height="800px" width="800px" version="1.1" id="Layer_1" xmlns="http://www.w3.org/2000/svg" xmlns:xlink="http://www.w3.org/1999/xlink" 
	 viewBox="0 0 496.621 496.621" xml:space="preserve">
<g transform="translate(2 2)">
	<path style="fill:#FFA800;" d="M246.312,11.23l-67.369,82.011c1.696,9.521-2.695,20.234-13.081,23.24
		c0.991,10.705-5.373,22.224-19.252,22.224c-1.646,0-3.182-0.168-4.626-0.47l-88.778,108.08L246.312,481.4l193.106-235.085
		L246.312,11.23z"/>
	<path style="fill:#FFE100;" d="M237.916,11.23l-52.861,67.276c2.536,8.992-0.579,19.764-9.412,24.189
		c-0.571,5.785-3.333,11.318-8.278,14.634c-0.336,9.764-6.75,19.277-19.353,19.277c-2.829,0-5.289-0.546-7.506-1.402l-87.3,111.111
		L246.312,481.4l159.824-235.085L237.916,11.23z"/>
	<polygon style="fill:#FFFFFF;" points="53.206,246.315 246.312,481.4 250.795,475.934 86.487,246.315 246.312,11.23 	"/>
	<path d="M246.31,494.621L42.341,246.314l96.729-117.76c2.943-3.583,8.232-4.1,11.819-1.16c3.583,2.943,4.1,8.236,1.16,11.819
		L64.068,246.314L246.31,468.17l182.242-221.856L246.31,24.459l-55.578,67.663c-2.948,3.583-8.24,4.1-11.819,1.16
		c-3.583-2.943-4.104-8.236-1.16-11.819L246.31-2l203.97,248.314L246.31,494.621z"/>
	<path d="M170.749,111.98c0,4.635-3.761,8.396-8.396,8.396s-8.396-3.761-8.396-8.396c0-4.635,3.761-8.396,8.396-8.396
		S170.749,107.346,170.749,111.98"/>
	<path d="M246.31,436.882c-1.845,0-3.702-0.607-5.252-1.853c-3.616-2.902-4.194-8.183-1.291-11.799l58.771-73.185
		c2.902-3.608,8.191-4.19,11.799-1.287c3.616,2.902,4.198,8.183,1.287,11.799l-58.763,73.185
		C251.201,435.808,248.766,436.882,246.31,436.882z"/>
</g>
</svg>