<?xml version="1.0" encoding="iso-8859-1"?>
<!-- Uploaded to: SVG Repo, www.svgrepo.com, Generator: SVG Repo Mixer Tools -->
<svg height="800px" width="800px" version="1.1" id="Layer_1" xmlns="http://www.w3.org/2000/svg" xmlns:xlink="http://www.w3.org/1999/xlink" 
	 viewBox="0 0 502.379 502.379" xml:space="preserve">
<g transform="translate(1 1)">
	<path style="fill:#FFA800;" d="M249.987,105.367c18.58-47.336,58.326-83.497,107.694-83.497c41.568,0,75.731,21.98,103.547,51.777
		c36.959,39.587,53.423,130.506-15.087,199.008c-34.759,34.759-195.75,202.131-195.75,202.131S89.407,307.414,54.648,272.655
		c-68.51-68.502-52.86-159.421-15.087-199.008C67.696,44.161,101.54,21.87,143.108,21.87
		C192.475,21.87,231.407,58.031,249.987,105.367"/>
	<path style="fill:#FFE100;" d="M437.93,73.646c-26.372-29.789-58.771-51.769-98.182-51.769c-46.807,0-72.146,36.153-89.761,83.489
		C232.364,58.03,183.105,21.877,136.29,21.877c-39.402,0-71.499,22.283-98.173,51.769C2.301,113.241-12.535,204.152,52.424,272.654
		c7.271,7.665,20.368,21.796,36.363,39.15c1.805-0.512,3.719-0.873,5.877-0.873c9.865,0,15.927,5.844,18.269,13.056
		c12.132,3.316,16.204,17.018,12.208,27.362c52.886,57.655,112.883,123.436,112.883,123.436s152.646-167.372,185.6-202.131
		C488.583,204.152,472.975,113.241,437.93,73.646"/>
	<path style="fill:#FFFFFF;" d="M38.515,73.646c27.816-29.789,61.979-51.769,103.547-51.769c3.065,0,6.095,0.143,9.084,0.411
		c-35.439,3.014-64.967,23.828-89.332,51.358C26.769,113.241,11.161,204.152,76.12,272.654
		c29.058,30.645,151.093,164.316,179.58,195.532c-4.03,4.19-6.347,6.599-6.347,6.599S88.361,307.413,53.602,272.654
		C-14.908,204.152,1.556,113.241,38.515,73.646"/>
	<path d="M452.483,207.157c-0.672,0-1.361-0.078-2.042-0.25c-4.501-1.123-7.232-5.682-6.108-10.179
		c0.746-3.017,1.435-5.907,2.042-8.625c7.338-32.714-5.403-71.648-30.296-92.576c-12.782-10.757-28.902-15.345-53.901-15.345
		c-4.641,0-8.396-3.759-8.396-8.396s3.755-8.396,8.396-8.396c29.295,0,48.645,5.768,64.707,19.284
		c29.418,24.737,44.505,70.619,35.871,109.102c-0.631,2.841-1.345,5.862-2.132,9.019
		C459.665,204.611,456.246,207.157,452.483,207.157z"/>
	<path d="M250.395,486.903l-6.051-6.289c-0.004-0.008-65.093-67.684-121.429-125.897c-3.222-3.329-3.136-8.65,0.197-11.872
		c3.329-3.214,8.638-3.14,11.872,0.197c46.071,47.604,98,101.546,115.411,119.642c29.66-30.82,159.231-165.393,189.805-195.959
		c64.052-64.047,49.801-149.958,14.89-187.35c-30.427-32.583-63.199-49.105-97.414-49.105c-42.676,0-80.95,29.951-99.878,78.166
		l-7.814,19.912l-7.814-19.912c-18.924-48.215-56.881-78.166-99.066-78.166c-34.022,0-65.905,16.083-97.471,49.17
		C10.356,116.414-4.074,202.07,60.58,266.724c6.945,6.945,18.911,19.161,33.625,34.281c3.23,3.321,3.161,8.634-0.164,11.872
		c-3.321,3.239-8.634,3.165-11.872-0.164c-14.64-15.037-26.549-27.205-33.461-34.117c-72.225-72.218-55.249-168.795-15.225-210.75
		c34.908-36.585,70.767-54.369,109.623-54.369c43.878,0,83.549,27.02,106.884,71.664c23.4-44.644,63.371-71.664,107.687-71.664
		c39.052,0,75.957,18.313,109.68,54.434c39.561,42.369,56.254,139.151-15.283,210.685
		c-34.297,34.297-194.016,200.345-195.627,202.018L250.395,486.903z"/>
	<path d="M115.653,323.66c0,4.635-3.761,8.396-8.396,8.396s-8.396-3.761-8.396-8.396s3.761-8.396,8.396-8.396
		S115.653,319.026,115.653,323.66"/>
</g>
</svg>