<?xml version="1.0" encoding="iso-8859-1"?>
<!-- Uploaded to: SVG Repo, www.svgrepo.com, Generator: SVG Repo Mixer Tools -->
<svg height="800px" width="800px" version="1.1" id="Layer_1" xmlns="http://www.w3.org/2000/svg" xmlns:xlink="http://www.w3.org/1999/xlink" 
	 viewBox="0 0 503.741 503.741" xml:space="preserve">
<g transform="translate(0 1)">
	<path style="fill:#FFA800;" d="M428.008,183.698L267.664,13.631c-9.034-8.287-22.904-8.287-31.938,0l-63.448,66.328
		c0.84,8.429-3.023,17.237-11.427,20.687c0.378,10.319-6.045,20.923-19.353,20.923c-0.361,0-0.663-0.084-1.016-0.101
		c-1.73,0.47-3.568,0.798-5.634,0.798c-0.982,0-1.864-0.16-2.779-0.277l-59.023,61.71c-38.176,35.405-54.464,94.185-22.568,153.586
		c20.243,37.706,58.738,63.112,101.498,64.749c27.849,1.075,38.806-8.228,54.934-23.282c4.248-3.963,11.2-0.982,11.2,4.819v28.521
		c0,15.39-4.013,30.502-11.645,43.86l-14.76,25.834c-3.199,5.6,0.84,12.56,7.288,12.56h105.402c6.448,0,10.486-6.96,7.288-12.56
		l-14.76-25.834c-7.632-13.358-11.645-28.47-11.645-43.86v-28.815c0-5.676,6.859-8.547,10.94-4.593
		c15.684,15.146,25.079,24.491,53.171,23.341c41.375-1.704,79.769-24.222,101.171-59.67
		C487.435,281.25,467.268,220.111,428.008,183.698"/>
	<path style="fill:#FFE100;" d="M405.008,183.698L253.512,13.631c-8.53-8.287-21.636-8.287-30.175,0L180.93,60.555
		c0.067,0.445,0.059,0.89,0.101,1.335c3.736,10.78-1.083,24.835-14.382,27.119c-1.654,4.24-4.626,7.867-8.547,10.159
		c0.101,10.117-6.356,20.301-19.403,20.301c-3.535,0-6.549-0.798-9.118-2.099l-59.938,66.328
		c-36.069,35.405-51.45,94.185-21.326,153.586c19.126,37.706,55.497,63.112,95.898,64.749c26.313,1.075,50.686-8.228,65.925-23.282
		c4.005-3.963,10.579-0.982,10.579,4.819v28.521c0,15.39-3.795,30.502-10.999,43.86l-15.742,25.834
		c-3.023,5.6,0.798,12.56,6.893,12.56h101.372c6.087,0,9.907-6.96,6.885-12.56l-13.946-25.834
		c-7.212-13.358-10.999-28.47-10.999-43.86v-28.815c0-5.676,6.473-8.547,10.335-4.593c14.819,15.146,9.672,24.491,36.212,23.341
		c39.091-1.704,75.37-24.222,95.579-59.67C461.16,281.25,442.101,220.111,405.008,183.698"/>
	<path style="fill:#FFFFFF;" d="M75.381,183.698L235.726,13.631c6.339-5.81,15.029-7.456,22.795-5.113
		c-3.123,0.991-6.095,2.636-8.648,5.113L98.386,183.698c-37.093,36.413-56.152,97.552-21.309,158.657
		c19.227,33.718,53.003,55.698,89.886,59.233c-3.896,0.411-8.068,0.638-12.963,0.437c-41.375-1.704-79.769-24.222-101.171-59.67
		C15.955,281.25,36.122,220.111,75.381,183.698"/>
	<path d="M304.391,502.741H199c-6.055,0-11.487-3.124-14.529-8.363c-3.038-5.239-3.062-11.503-0.057-16.759l14.758-25.835
		c6.895-12.069,10.54-25.794,10.54-39.692v-24.491c-16.411,15.029-29.615,23.958-58.054,22.818
		c-44.993-1.714-86.599-28.221-108.577-69.168c-30.747-57.263-21.223-121.523,24.253-163.708l55.861-58.423
		c3.202-3.345,8.519-3.468,11.872-0.262c3.349,3.206,3.468,8.519,0.262,11.872l-56.217,58.771
		c-40.057,37.175-48.252,93.486-21.24,143.813c19.178,35.724,55.356,58.837,94.429,60.329c24.216,0.836,32.96-6.166,48.875-21.023
		c4.391-4.108,10.782-5.198,16.292-2.812c5.489,2.386,9.035,7.789,9.035,13.766v28.517c0,16.816-4.411,33.428-12.754,48.022
		l-14.758,25.835h105.4l-14.75-25.835c-8.347-14.603-12.758-31.206-12.758-48.022l0.008-28.812c0-5.953,3.542-11.307,9.035-13.635
		c5.477-2.329,11.84-1.156,16.136,3.009c15.308,14.783,22.835,21.933,46.989,20.982c38.429-1.582,74.571-22.892,94.314-55.615
		c36.74-60.87,11.61-117.862-21.064-148.166L261.559,19.391c-5.432-4.948-14.291-4.948-20.162,0.43l-59.267,60.6
		c-3.239,3.325-8.56,3.382-11.872,0.131c-3.317-3.243-3.374-8.56-0.131-11.872l59.595-60.92c12.672-11.63,31.288-11.622,43.619-0.32
		l160.776,170.497c36.904,34.194,65.577,99.254,23.63,168.758c-22.63,37.486-64.01,61.903-108.007,63.715
		c-29.558,1.123-41.488-8.543-56.057-22.515l-0.008,24.196c0,13.898,3.649,27.623,10.544,39.692l14.758,25.835
		c3.001,5.272,2.976,11.536-0.066,16.767C315.87,499.617,310.442,502.741,304.391,502.741z"/>
	<path d="M159.34,99.739c0,4.635-3.761,8.396-8.396,8.396s-8.396-3.761-8.396-8.396s3.761-8.396,8.396-8.396
		S159.34,95.105,159.34,99.739"/>
	<path d="M348.002,376.868c-4.477,0-8.191-3.534-8.379-8.043c-0.197-4.641,3.403-8.552,8.035-8.74
		c10.798-0.451,21.334-3.034,31.304-7.683c14.808-6.895,27.467-18.161,35.65-31.731c14.627-24.22,16.529-49.424,5.674-74.928
		c-1.82-4.264,0.164-9.195,4.436-11.011c4.264-1.82,9.191,0.164,11.011,4.436c12.905,30.308,10.577,61.497-6.74,90.178
		c-10.036,16.636-24.884,29.869-42.939,38.273c-11.987,5.592-24.671,8.699-37.691,9.24
		C348.24,376.868,348.125,376.868,348.002,376.868z"/>
</g>
</svg>